<svg width="36" height="36" viewBox="0 0 36 36" fill="none" xmlns="http://www.w3.org/2000/svg">
<path d="M0 1.22727H4.5V7.97727H0V1.22727Z" fill="#B12418"/>
<path d="M6.75 1.22727H22.5V7.97727H6.75V1.22727Z" fill="#B12418"/>
<path d="M13.5 16.9773V10.2273H0V16.9773H13.5Z" fill="#B12418"/>
<path d="M15.75 10.2273V16.9773H31.5V10.2273H15.75Z" fill="#B12418"/>
<path d="M24.75 1.22727H36V7.97727H24.75V1.22727Z" fill="#B12418"/>
<path d="M36 10.2273H33.75V16.9773H36V10.2273Z" fill="#B12418"/>
<path d="M4.5 19.2273H0V25.9773H4.5V19.2273Z" fill="#B12418"/>
<path d="M6.75 19.2273V25.9773H22.5V19.2273H6.75Z" fill="#B12418"/>
<path d="M13.5 28.2273V34.9773H0V28.2273H13.5Z" fill="#B12418"/>
<path d="M15.75 28.2273H31.5V34.9773H15.75V28.2273Z" fill="#B12418"/>
<path d="M24.75 19.2273H36V25.9773H24.75V19.2273Z" fill="#B12418"/>
<path d="M36 28.2273H33.75V34.9773H36V28.2273Z" fill="#B12418"/>
</svg>
