<svg width="42" height="36" viewBox="0 0 42 36" fill="none" xmlns="http://www.w3.org/2000/svg">
  <path fill-rule="evenodd" clip-rule="evenodd"
    d="M21 7.71429H23.625V12.8571H26.25V10.2857H31.5V5.14286H34.125V2.57143H36.75V0H42V2.57143H39.375V5.14286H42V7.71429H39.375V10.2857H42V12.8571H36.75V15.4286H39.375V18H36.75V23.1429H34.125V25.7143H26.25V23.1429H23.625V28.2857H26.25V30.8571H31.5V36H26.25V33.4286H23.625V36H18.375V33.4286H15.75V36H10.5V30.8571H15.75V28.2857H18.375V23.1429H15.75V25.7143H7.875V23.1429H5.25V18H2.625V15.4286H5.25V12.8571H0V10.2857H2.625V7.71429H0V5.14286H2.625V2.57143H0V0H5.25V2.57143H7.875V5.14286H10.5V10.2857H15.75V12.8571H18.375V5.14286H15.75V2.57143H23.625V5.14286H21V7.71429ZM26.25 20.5714V18H23.625V20.5714H26.25ZM31.5 15.4286H34.125V12.8571H31.5V15.4286ZM31.5 15.4286H28.875V18H31.5V15.4286ZM18.375 20.5714V18H15.75V20.5714H18.375ZM7.875 12.8571H10.5V15.4286H7.875V12.8571ZM10.5 15.4286H13.125V18H10.5V15.4286Z"
    fill="#FFFC48" />
  <path d="M26.25 5.14286H23.625V7.71429H26.25V5.14286Z" fill="#FFFC48" />
</svg>